<?xml version="1.0" encoding="utf-8"?>
<!-- Generator: Adobe Illustrator 21.0.0, SVG Export Plug-In . SVG Version: 6.00 Build 0)  -->
<svg version="1.1" xmlns="http://www.w3.org/2000/svg" xmlns:xlink="http://www.w3.org/1999/xlink" x="0px" y="0px"
	 viewBox="0 0 577.638 525.052" style="enable-background:new 0 0 577.638 525.052;" xml:space="preserve">
<style type="text/css">
	.st0{fill:#8D9870;}
	.st1{fill:#3B2210;}
	.st2{fill:#1D74F2;}
	.st3{opacity:0.4;fill:#C1C1C1;}
	.st4{fill:#333333;}
	.st5{fill:#5E16B2;}
	.st6{fill:url(#SVGID_1_);}
	.st7{fill:#8CC63F;}
	.st8{fill:#C1C1C1;}
	.st9{fill:#127BF9;}
	.st10{fill:#055AAD;}
	.st11{fill:#929497;}
	.st12{fill:none;stroke:#929497;stroke-miterlimit:10;}
	.st13{fill:#333132;}
	.st14{clip-path:url(#SVGID_3_);}
	.st15{opacity:0.4;fill:#50A5F9;}
	.st16{opacity:0.3;fill:#50A5F9;}
	.st17{opacity:0.6;fill:#50A5F9;}
	.st18{opacity:0.5;fill:#50A5F9;}
	.st19{opacity:0.8;fill:#50A5F9;}
	.st20{opacity:0.7;fill:#50A5F9;}
	.st21{opacity:0.9;fill:#50A5F9;}
	.st22{fill:#50A5F9;}
	.st23{fill:#F69348;}
	.st24{fill:#FFFFFF;}
	.st25{clip-path:url(#SVGID_5_);}
	.st26{opacity:0.4;fill:#127BF9;}
	.st27{opacity:0.3;fill:#127BF9;}
	.st28{opacity:0.6;fill:#127BF9;}
	.st29{opacity:0.5;fill:#127BF9;}
	.st30{opacity:0.8;fill:#127BF9;}
	.st31{opacity:0.7;fill:#127BF9;}
	.st32{opacity:0.9;fill:#127BF9;}
	.st33{fill:#179ED9;}
	.st34{clip-path:url(#SVGID_7_);}
	.st35{opacity:0.3;fill:#C1C1C1;}
	.st36{opacity:0.6;fill:#C1C1C1;}
	.st37{opacity:0.5;fill:#C1C1C1;}
	.st38{opacity:0.8;fill:#C1C1C1;}
	.st39{opacity:0.7;fill:#C1C1C1;}
	.st40{opacity:0.9;fill:#C1C1C1;}
	.st41{fill:url(#SVGID_8_);}
	.st42{opacity:0.9;}
	.st43{fill:#F4F4F4;}
	.st44{fill:#DFE2E5;}
	.st45{fill:#C4C8CC;}
	.st46{fill:#0565D8;}
	.st47{fill:#2B94FC;}
	.st48{fill:none;stroke:#FFFFFF;stroke-miterlimit:10;}
	.st49{fill:none;stroke:#FFFFFF;stroke-width:2;stroke-miterlimit:10;}
	.st50{fill:none;stroke:#FFFFFF;stroke-width:4;stroke-miterlimit:10;}
	.st51{fill:none;stroke:#FFFFFF;stroke-width:0.5;stroke-miterlimit:10;}
	.st52{fill:#2214DD;}
	.st53{fill:#0F0FBA;}
	.st54{fill:#2E5BFF;}
	.st55{fill:#2929EF;}
	.st56{fill:#0D0D99;}
	.st57{fill:#FFD00B;}
	.st58{fill:#424242;}
	.st59{fill:#FFB40D;}
	.st60{fill:#EFA118;}
	.st61{fill:#FFE36C;}
	.st62{fill:#E09500;}
	.st63{fill:#801CEA;}
	.st64{fill:#6813D6;}
	.st65{fill:#935FF9;}
	.st66{fill:#8A38F4;}
	.st67{fill:#4D0BB5;}
	.st68{fill:#05D845;}
	.st69{fill:#05CE42;}
	.st70{fill:#04A326;}
	.st71{fill:#26F967;}
	.st72{fill:#03E84F;}
	.st73{fill:#02891E;}
	.st74{fill:#ED1B5C;}
	.st75{fill:#CC1154;}
	.st76{fill:#F74F94;}
	.st77{fill:#F2387B;}
	.st78{fill:#B50B50;}
</style>
<g id="Layer_2">
</g>
<g id="Warstwa_2">
</g>
<g id="Warstwa_3">
</g>
<g id="Warstwa_4">
	<g>
		<g>
			<polygon class="st46" points="288.819,236.327 288.819,288.725 288.819,352.909 288.819,405.306 389.781,463.597 
				389.781,411.199 389.781,347.016 389.781,294.618 			"/>
		</g>
		<g>
			<polygon class="st10" points="187.856,294.618 187.856,347.016 187.856,411.199 187.856,463.597 288.819,405.306 
				288.819,352.909 288.819,288.725 288.819,236.327 			"/>
		</g>
		<polygon class="st22" points="389.781,61.456 288.819,119.746 187.856,61.456 86.894,119.746 187.856,178.037 288.819,236.327 
			389.781,178.037 490.744,119.746 		"/>
		<polygon class="st47" points="187.856,178.037 86.894,119.746 86.894,236.327 86.894,288.725 86.894,352.909 86.894,405.306 
			187.856,463.597 187.856,411.199 187.856,347.016 187.856,294.618 288.819,352.909 288.819,236.327 		"/>
		<polygon class="st9" points="389.781,178.037 288.819,236.327 288.819,352.909 389.781,294.618 389.781,347.016 389.781,411.199 
			389.781,463.597 490.744,405.306 490.744,352.909 490.744,288.725 490.744,236.327 490.744,119.746 		"/>
	</g>
</g>
</svg>
